# MagicaVoxel @ Ephtracy

# material
mtllib BasicBox.mtl
usemtl palette

# normals
vn -1 0 0
vn 1 0 0
vn 0 0 1
vn 0 0 -1
vn 0 -1 0
vn 0 1 0

# texcoords
vt 0.306641 0.5
vt 0.958984 0.5

# verts
v -10 0 10
v -10 0 -10
v -10 1 9
v -10 1 -9
v -10 19 9
v -10 19 -9
v -10 20 10
v -10 20 -10
v 9 1 9
v 9 1 -9
v 9 19 9
v 9 19 -9
v -9 1 9
v -9 1 -9
v -9 19 9
v -9 19 -9
v 10 0 10
v 10 0 -10
v 10 1 9
v 10 1 -9
v 10 19 9
v 10 19 -9
v 10 20 10
v 10 20 -10
v -10 0 10
v -10 20 10
v -9 1 10
v -9 19 10
v 9 1 10
v 9 19 10
v 10 0 10
v 10 20 10
v -9 1 -9
v -9 19 -9
v 9 1 -9
v 9 19 -9
v -9 1 9
v -9 19 9
v 9 1 9
v 9 19 9
v -10 0 -10
v -10 20 -10
v -9 1 -10
v -9 19 -10
v 9 1 -10
v 9 19 -10
v 10 0 -10
v 10 20 -10
v -10 0 10
v 10 0 10
v -9 0 9
v 9 0 9
v -9 0 -9
v 9 0 -9
v -10 0 -10
v 10 0 -10
v -9 19 9
v 9 19 9
v -9 19 -9
v 9 19 -9
v -9 1 9
v 9 1 9
v -9 1 -9
v 9 1 -9
v -10 20 10
v 10 20 10
v -9 20 9
v 9 20 9
v -9 20 -9
v 9 20 -9
v -10 20 -10
v 10 20 -10

# faces
f 3/1/1 2/1/1 1/1/1
f 4/1/1 2/1/1 3/1/1
f 5/1/1 3/1/1 1/1/1
f 5/2/1 4/2/1 3/2/1
f 6/1/1 2/1/1 4/1/1
f 6/2/1 4/2/1 5/2/1
f 7/1/1 5/1/1 1/1/1
f 7/1/1 6/1/1 5/1/1
f 8/1/1 2/1/1 6/1/1
f 8/1/1 6/1/1 7/1/1
f 11/2/1 10/2/1 9/2/1
f 12/2/1 10/2/1 11/2/1
f 13/2/2 14/2/2 15/2/2
f 15/2/2 14/2/2 16/2/2
f 17/1/2 18/1/2 19/1/2
f 19/1/2 18/1/2 20/1/2
f 17/1/2 19/1/2 21/1/2
f 19/2/2 20/2/2 21/2/2
f 20/1/2 18/1/2 22/1/2
f 21/2/2 20/2/2 22/2/2
f 17/1/2 21/1/2 23/1/2
f 21/1/2 22/1/2 23/1/2
f 22/1/2 18/1/2 24/1/2
f 23/1/2 22/1/2 24/1/2
f 27/1/3 26/1/3 25/1/3
f 28/1/3 26/1/3 27/1/3
f 29/1/3 27/1/3 25/1/3
f 29/2/3 28/2/3 27/2/3
f 30/1/3 26/1/3 28/1/3
f 30/2/3 28/2/3 29/2/3
f 31/1/3 29/1/3 25/1/3
f 31/1/3 30/1/3 29/1/3
f 32/1/3 26/1/3 30/1/3
f 32/1/3 30/1/3 31/1/3
f 35/2/3 34/2/3 33/2/3
f 36/2/3 34/2/3 35/2/3
f 37/2/4 38/2/4 39/2/4
f 39/2/4 38/2/4 40/2/4
f 41/1/4 42/1/4 43/1/4
f 43/1/4 42/1/4 44/1/4
f 41/1/4 43/1/4 45/1/4
f 43/2/4 44/2/4 45/2/4
f 44/1/4 42/1/4 46/1/4
f 45/2/4 44/2/4 46/2/4
f 41/1/4 45/1/4 47/1/4
f 45/1/4 46/1/4 47/1/4
f 46/1/4 42/1/4 48/1/4
f 47/1/4 46/1/4 48/1/4
f 51/1/5 50/1/5 49/1/5
f 52/1/5 50/1/5 51/1/5
f 53/1/5 51/1/5 49/1/5
f 53/2/5 52/2/5 51/2/5
f 54/1/5 50/1/5 52/1/5
f 54/2/5 52/2/5 53/2/5
f 55/1/5 53/1/5 49/1/5
f 55/1/5 54/1/5 53/1/5
f 56/1/5 50/1/5 54/1/5
f 56/1/5 54/1/5 55/1/5
f 59/2/5 58/2/5 57/2/5
f 60/2/5 58/2/5 59/2/5
f 61/2/6 62/2/6 63/2/6
f 63/2/6 62/2/6 64/2/6
f 65/1/6 66/1/6 67/1/6
f 67/1/6 66/1/6 68/1/6
f 65/1/6 67/1/6 69/1/6
f 67/2/6 68/2/6 69/2/6
f 68/1/6 66/1/6 70/1/6
f 69/2/6 68/2/6 70/2/6
f 65/1/6 69/1/6 71/1/6
f 69/1/6 70/1/6 71/1/6
f 70/1/6 66/1/6 72/1/6
f 71/1/6 70/1/6 72/1/6
